<?xml version="1.0" encoding="UTF-8"?>
<svg xmlns="http://www.w3.org/2000/svg" xmlns:xlink="http://www.w3.org/1999/xlink" width="1700.7pt" height="841.9pt" viewBox="0 0 1700.7 841.9" version="1.1">
<defs>
<clipPath id="clip1">
  <path d="M 0 0 L 1700.699219 0 L 1700.699219 841.898438 L 0 841.898438 Z M 0 0 "/>
</clipPath>
</defs>
<g id="surface1">
<g clip-path="url(#clip1)" clip-rule="nonzero">
<path style=" stroke:none;fill-rule:evenodd;fill:rgb(100%,100%,100%);fill-opacity:1;" d="M 0 841.890625 L 1700.789063 841.890625 L 1700.789063 0 L 0 0 Z M 0 841.890625 "/>
</g>
<path style=" stroke:none;fill-rule:evenodd;fill:rgb(0%,0.784302%,0%);fill-opacity:1;" d="M 962.320313 537.671875 C 982.957031 577.148438 1011.671875 616.273438 1043.628906 644.023438 L 1056.140625 654.894531 L 1043.460938 665.570313 C 1003.480469 699.210938 955.902344 721.574219 904.6875 731.855469 L 904.574219 731.878906 L 904.460938 731.898438 C 842.125 743.359375 777.117188 735.917969 718.722656 711.421875 L 718.570313 711.355469 L 718.414063 711.289063 C 695.035156 700.824219 673.160156 687.742188 652.757813 672.246094 L 652.136719 671.773438 L 630.269531 651.023438 L 642.746094 640.84375 C 668.832031 619.566406 691.34375 593.554688 710.070313 565.636719 C 716.832031 555.558594 723.472656 544.75 729.460938 533.691406 C 686.507813 552.421875 649.40625 581.605469 620.398438 618.675781 L 609.265625 632.898438 L 598.097656 618.707031 C 576.882813 591.75 559.828125 562.058594 548.015625 529.945313 L 172.800781 529.945313 C 153.28125 529.945313 137.414063 513.980469 137.414063 494.476563 L 137.414063 341.65625 C 137.414063 322.152344 153.28125 306.1875 172.800781 306.1875 L 551.429688 306.1875 C 563.75 275.023438 581.03125 246.035156 602.945313 220.59375 L 603.601563 219.832031 L 619.367188 206.070313 L 628.417969 218.964844 C 653.917969 255.285156 693.574219 284.074219 733.46875 303.902344 C 719.234375 271.304688 698.007813 242.28125 672.167969 217.574219 L 636.523438 185.972656 L 648.734375 175.382813 C 677.144531 150.738281 711.378906 134.890625 746.085938 121.242188 L 746.484375 121.085938 L 746.890625 120.953125 C 799.007813 104.019531 862.164063 98.894531 915.578125 112.5 C 965.132813 124.433594 1011.839844 146.230469 1050.460938 179.890625 L 1063.769531 191.484375 L 1049.578125 201.972656 C 1013.941406 228.316406 982.136719 265.511719 962.464844 306.1875 L 971.1875 306.1875 C 1009.878906 287.34375 1045.460938 259.382813 1071.171875 224.820313 L 1082.070313 210.160156 L 1093.558594 224.363281 C 1113.601563 249.132813 1129.929688 276.605469 1141.671875 306.1875 L 1527.980469 306.1875 C 1547.511719 306.1875 1563.371094 322.152344 1563.371094 341.65625 L 1563.371094 494.476563 C 1563.371094 513.980469 1547.511719 529.945313 1527.980469 529.945313 L 1142.410156 529.945313 C 1131.121094 559.855469 1115.371094 587.84375 1095.859375 613.234375 L 1095.578125 613.601563 L 1074.660156 637.402344 L 1064.210938 623.378906 C 1037.5 587.570313 1002.539063 557.351563 962.320313 537.671875 Z M 962.320313 537.671875 "/>
<path style=" stroke:none;fill-rule:evenodd;fill:rgb(60.351563%,0%,11.376953%);fill-opacity:1;" d="M 1084.628906 604.597656 L 1075.570313 614.90625 C 1042.511719 570.585938 998.023438 535.25 947.566406 515.773438 L 936.253906 515.773438 C 944.191406 534.417969 976.613281 604.597656 1034.328125 654.726563 C 996.480469 686.574219 951.238281 708.054688 901.898438 717.960938 C 839.964844 729.347656 777.816406 720.839844 724.207031 698.351563 C 702.078125 688.445313 681.304688 676.132813 661.328125 660.957031 L 651.707031 651.828125 C 711.667969 602.917969 744.691406 537.304688 753.945313 515.773438 L 735.816406 515.773438 C 686.796875 534.59375 643.21875 566.515625 609.234375 609.941406 C 586.652344 581.25 569.308594 549.816406 558.078125 515.773438 L 172.800781 515.773438 C 161.132813 515.773438 151.589844 506.191406 151.589844 494.476563 L 151.589844 341.65625 C 151.589844 329.945313 161.132813 320.363281 172.800781 320.363281 L 561.234375 320.363281 C 572.972656 287.628906 590.4375 256.832031 613.683594 229.84375 L 616.820313 227.109375 C 651.054688 275.871094 704.640625 306.144531 734.964844 320.363281 L 754.917969 320.363281 C 740.726563 277.265625 715.144531 239.003906 681.769531 207.144531 L 658.019531 186.089844 C 685.09375 162.605469 718.125 147.46875 751.273438 134.433594 C 800.453125 118.453125 861.09375 113.222656 912.167969 126.257813 C 959.175781 137.5625 1003.980469 158.175781 1041.160156 190.574219 C 997.5625 222.792969 959.953125 270.035156 940.945313 320.363281 L 974.417969 320.363281 C 1005.511719 305.628906 1049.109375 278.226563 1082.539063 233.277344 C 1103.648438 259.371094 1120.480469 288.585938 1131.871094 320.363281 L 1527.980469 320.363281 C 1539.648438 320.363281 1549.199219 329.945313 1549.199219 341.65625 L 1549.199219 494.476563 C 1549.199219 506.191406 1539.648438 515.773438 1527.980469 515.773438 L 1132.441406 515.773438 C 1121.570313 547.675781 1105.421875 577.523438 1084.628906 604.597656 Z M 1084.628906 604.597656 "/>
<path style=" stroke:none;fill-rule:evenodd;fill:rgb(100%,100%,100%);fill-opacity:1;" d="M 249.8125 488.222656 L 213.292969 488.222656 L 213.292969 351.480469 L 249.8125 351.480469 Z M 308.609375 488.222656 L 272.300781 488.222656 L 272.300781 367.507813 C 272.300781 363.703125 273.28125 360.355469 275.203125 357.398438 C 277.128906 354.4375 279.71875 352.128906 283.003906 350.472656 C 286.292969 348.816406 289.789063 347.96875 293.5 347.96875 C 298.710938 347.96875 303.675781 349.496094 308.46875 352.554688 C 313.261719 355.578125 317.28125 360.160156 320.605469 366.304688 L 352.261719 424.628906 L 352.261719 351.480469 L 388.566406 351.480469 L 388.566406 470.277344 C 388.566406 475.996094 386.746094 480.9375 383.074219 485.101563 C 379.402344 489.292969 374.855469 491.375 369.46875 491.375 C 360.480469 491.375 352.503906 485.261719 345.542969 473.039063 L 308.609375 407.464844 Z M 449.21875 384.25 L 449.21875 488.222656 L 412.910156 488.222656 L 412.910156 351.480469 L 452.996094 351.480469 C 466.460938 351.480469 478.25 353.527344 488.324219 357.65625 C 498.359375 361.753906 506.617188 367.214844 512.980469 374.011719 C 519.382813 380.804688 524.105469 388.25 527.148438 396.347656 C 530.191406 404.441406 531.695313 412.570313 531.695313 420.730469 C 531.695313 429.667969 530.085938 438.15625 526.867188 446.25 C 523.613281 454.34375 518.859375 461.5625 512.5625 467.871094 C 506.265625 474.210938 498.464844 479.183594 489.160156 482.792969 C 479.859375 486.402344 469.398438 488.222656 457.820313 488.222656 L 457.820313 455.449219 C 466.425781 454.605469 473.492188 452.296875 478.949219 448.527344 C 484.40625 444.753906 488.355469 440.332031 490.769531 435.261719 C 493.183594 430.191406 494.375 425.054688 494.375 419.917969 C 494.164063 408.308594 489.964844 399.5625 481.746094 393.679688 C 473.527344 387.796875 462.683594 384.675781 449.21875 384.25 Z M 635.753906 351.480469 L 635.753906 383.113281 C 624.246094 383.113281 615.570313 383.699219 609.730469 384.871094 C 603.886719 386.039063 599.339844 388.152344 596.089844 391.144531 C 592.871094 394.167969 589.722656 398.816406 586.679688 405.125 L 635.753906 405.125 L 635.753906 435 L 586.679688 435 C 589.792969 441.339844 592.976563 445.988281 596.261719 448.949219 C 599.550781 451.875 604.0625 453.890625 609.800781 454.964844 C 615.570313 456.035156 624.210938 456.589844 635.753906 456.589844 L 635.753906 488.222656 L 612.074219 488.222656 C 604.238281 488.222656 596.507813 486.660156 588.882813 483.507813 C 581.257813 480.355469 574.367188 475.835938 568.246094 469.886719 C 562.089844 463.9375 557.191406 456.847656 553.519531 448.558594 C 549.847656 440.269531 547.890625 431.101563 547.644531 421.121094 C 547.644531 412.179688 549.183594 403.5 552.261719 395.046875 C 555.339844 386.625 559.640625 379.148438 565.238281 372.613281 C 570.835938 366.109375 577.515625 360.972656 585.28125 357.171875 C 593.046875 353.367188 601.40625 351.480469 610.394531 351.480469 Z M 692.90625 488.222656 L 655.96875 488.222656 L 655.96875 402.589844 C 655.96875 389.453125 658.453125 378.917969 663.453125 370.988281 C 668.421875 363.054688 674.753906 357.496094 682.378906 354.308594 C 690.003906 351.121094 698.117188 349.53125 706.722656 349.53125 C 716.65625 349.53125 724.980469 351.027344 731.660156 354.015625 C 737.921875 357.039063 742.992188 360.777344 746.910156 365.234375 C 750.828125 369.652344 753.625 374.402344 755.339844 379.472656 C 757.054688 384.542969 757.894531 389.746094 757.894531 395.175781 C 757.894531 402.101563 756.808594 408.539063 754.605469 414.453125 C 752.402344 420.371094 749.570313 424.988281 746.175781 428.367188 C 741.453125 432.726563 736.3125 436.335938 730.714844 439.164063 C 725.15625 441.992188 717.285156 443.453125 707.140625 443.550781 C 706.199219 443.488281 704.761719 443.390625 702.910156 443.226563 C 701.019531 443.0625 699.550781 442.964844 698.539063 442.964844 L 698.539063 411.527344 C 706.160156 411.527344 712.003906 410.164063 716.097656 407.398438 C 720.1875 404.667969 722.25 401.09375 722.25 396.734375 C 722.25 392.28125 720.644531 388.445313 717.390625 385.195313 C 714.136719 381.976563 710.148438 380.351563 705.460938 380.351563 C 701.824219 380.351563 698.851563 381.652344 696.472656 384.21875 C 694.09375 386.789063 692.90625 390.6875 692.90625 395.957031 Z M 857.542969 351.480469 L 857.542969 383.113281 C 846.035156 383.113281 837.363281 383.699219 831.519531 384.871094 C 825.679688 386.039063 821.132813 388.152344 817.878906 391.144531 C 814.660156 394.167969 811.515625 398.816406 808.472656 405.125 L 857.542969 405.125 L 857.542969 435 L 808.472656 435 C 811.585938 441.339844 814.765625 445.988281 818.054688 448.949219 C 821.34375 451.875 825.855469 453.890625 831.589844 454.964844 C 837.363281 456.035156 846.003906 456.589844 857.542969 456.589844 L 857.542969 488.222656 L 833.863281 488.222656 C 826.03125 488.222656 818.300781 486.660156 810.675781 483.507813 C 803.050781 480.355469 796.160156 475.835938 790.039063 469.886719 C 783.882813 463.9375 778.984375 456.847656 775.3125 448.558594 C 771.640625 440.269531 769.679688 431.101563 769.4375 421.121094 C 769.4375 412.179688 770.976563 403.5 774.054688 395.046875 C 777.132813 386.625 781.433594 379.148438 787.03125 372.613281 C 792.625 366.109375 799.308594 360.972656 807.070313 357.171875 C 814.835938 353.367188 823.195313 351.480469 832.1875 351.480469 Z M 915.710938 488.222656 L 879.40625 488.222656 L 879.40625 367.507813 C 879.40625 363.703125 880.386719 360.355469 882.308594 357.398438 C 884.230469 354.4375 886.820313 352.128906 890.109375 350.472656 C 893.394531 348.816406 896.894531 347.96875 900.601563 347.96875 C 905.8125 347.96875 910.78125 349.496094 915.570313 352.554688 C 920.363281 355.578125 924.386719 360.160156 927.710938 366.304688 L 959.363281 424.628906 L 959.363281 351.480469 L 995.671875 351.480469 L 995.671875 470.277344 C 995.671875 475.996094 993.851563 480.9375 990.179688 485.101563 C 986.507813 489.292969 981.960938 491.375 976.574219 491.375 C 967.582031 491.375 959.609375 485.261719 952.648438 473.039063 L 915.710938 407.464844 Z M 1056.320313 384.25 L 1056.320313 488.222656 L 1020.019531 488.222656 L 1020.019531 351.480469 L 1060.101563 351.480469 C 1073.570313 351.480469 1085.351563 353.527344 1095.429688 357.65625 C 1105.460938 361.753906 1113.71875 367.214844 1120.089844 374.011719 C 1126.480469 380.804688 1131.210938 388.25 1134.25 396.347656 C 1137.289063 404.441406 1138.800781 412.570313 1138.800781 420.730469 C 1138.800781 429.667969 1137.191406 438.15625 1133.96875 446.25 C 1130.71875 454.34375 1125.960938 461.5625 1119.660156 467.871094 C 1113.371094 474.210938 1105.570313 479.183594 1096.269531 482.792969 C 1086.960938 486.402344 1076.5 488.222656 1064.929688 488.222656 L 1064.929688 455.449219 C 1073.53125 454.605469 1080.589844 452.296875 1086.050781 448.527344 C 1091.511719 444.753906 1095.460938 440.332031 1097.878906 435.261719 C 1100.289063 430.191406 1101.480469 425.054688 1101.480469 419.917969 C 1101.269531 408.308594 1097.070313 399.5625 1088.851563 393.679688 C 1080.628906 387.796875 1069.789063 384.675781 1056.320313 384.25 Z M 1242.859375 351.480469 L 1242.859375 383.113281 C 1231.351563 383.113281 1222.679688 383.699219 1216.828125 384.871094 C 1210.988281 386.039063 1206.441406 388.152344 1203.191406 391.144531 C 1199.96875 394.167969 1196.820313 398.816406 1193.78125 405.125 L 1242.859375 405.125 L 1242.859375 435 L 1193.78125 435 C 1196.890625 441.339844 1200.078125 445.988281 1203.371094 448.949219 C 1206.660156 451.875 1211.171875 453.890625 1216.898438 454.964844 C 1222.679688 456.035156 1231.308594 456.589844 1242.859375 456.589844 L 1242.859375 488.222656 L 1219.179688 488.222656 C 1211.339844 488.222656 1203.609375 486.660156 1195.980469 483.507813 C 1188.359375 480.355469 1181.46875 475.835938 1175.351563 469.886719 C 1169.191406 463.9375 1164.300781 456.847656 1160.628906 448.558594 C 1156.949219 440.269531 1154.988281 431.101563 1154.75 421.121094 C 1154.75 412.179688 1156.289063 403.5 1159.359375 395.046875 C 1162.441406 386.625 1166.75 379.148438 1172.339844 372.613281 C 1177.941406 366.109375 1184.621094 360.972656 1192.378906 357.171875 C 1200.148438 353.367188 1208.511719 351.480469 1217.5 351.480469 Z M 1301.019531 488.222656 L 1264.71875 488.222656 L 1264.71875 367.507813 C 1264.71875 363.703125 1265.691406 360.355469 1267.621094 357.398438 C 1269.539063 354.4375 1272.128906 352.128906 1275.421875 350.472656 C 1278.710938 348.816406 1282.210938 347.96875 1285.910156 347.96875 C 1291.128906 347.96875 1296.089844 349.496094 1300.878906 352.554688 C 1305.679688 355.578125 1309.699219 360.160156 1313.019531 366.304688 L 1344.679688 424.628906 L 1344.679688 351.480469 L 1380.980469 351.480469 L 1380.980469 470.277344 C 1380.980469 475.996094 1379.160156 480.9375 1375.488281 485.101563 C 1371.820313 489.292969 1367.269531 491.375 1361.878906 491.375 C 1352.890625 491.375 1344.921875 485.261719 1337.960938 473.039063 L 1301.019531 407.464844 Z M 1394.628906 351.480469 L 1484.859375 351.480469 L 1484.859375 384.25 L 1457.789063 384.25 L 1457.789063 488.222656 L 1421.28125 488.222656 L 1421.28125 384.25 L 1394.628906 384.25 Z M 1394.628906 351.480469 "/>
</g>
</svg>
